<svg width="17" height="21" viewBox="0 0 17 21" fill="none" xmlns="http://www.w3.org/2000/svg">
<g clip-path="url(#clip0_1_128)">
<path d="M14.0291 11.2969C14.0568 14.3178 16.6379 15.3231 16.6665 15.3359C16.6446 15.4068 16.254 16.7685 15.3066 18.175C14.4876 19.3911 13.6376 20.6026 12.2985 20.6277C10.9829 20.6523 10.5598 19.8351 9.05552 19.8351C7.55171 19.8351 7.08165 20.6026 5.83615 20.6523C4.54365 20.7021 3.5594 19.3374 2.73365 18.1258C1.04615 15.6475 -0.243416 11.1226 1.48815 8.06828C2.34833 6.55146 3.88565 5.59101 5.55415 5.56638C6.82333 5.5418 8.02133 6.4338 8.79721 6.4338C9.57258 6.4338 11.0284 5.36111 12.5588 5.51863C13.1995 5.54574 14.998 5.78149 16.1528 7.49869C16.0596 7.5573 14.0068 8.77133 14.0291 11.2969M11.5565 3.87901C12.2427 3.0352 12.7045 1.8606 12.5785 0.691772C11.5894 0.732153 10.3934 1.36136 9.6839 2.20466C9.04808 2.95152 8.49127 4.14682 8.64152 5.29247C9.74402 5.37914 10.8702 4.72333 11.5565 3.87901Z" fill="#0F1011"/>
</g>
<defs>
<clipPath id="clip0_1_128">
<rect width="16" height="20" fill="white" transform="translate(0.666687 0.691772)"/>
</clipPath>
</defs>
</svg>
