<svg width="23" height="23" viewBox="0 0 23 23" fill="none" xmlns="http://www.w3.org/2000/svg">
<path d="M4.41224 17.7743C4.61838 19.3054 5.88653 20.5049 7.42977 20.5758C8.72833 20.6355 10.0474 20.6667 11.5001 20.6667C12.9527 20.6667 14.2718 20.6355 15.5704 20.5758C17.1137 20.5049 18.3818 19.3054 18.5879 17.7743C18.7225 16.7751 18.8334 15.7511 18.8334 14.7083C18.8334 13.6655 18.7225 12.6415 18.5879 11.6424C18.3818 10.1113 17.1137 8.91178 15.5704 8.84083C14.2718 8.78114 12.9527 8.75 11.5001 8.75C10.0474 8.75 8.72833 8.78114 7.42977 8.84083C5.88653 8.91178 4.61838 10.1113 4.41224 11.6424C4.27771 12.6415 4.16675 13.6655 4.16675 14.7083C4.16675 15.7511 4.27771 16.7751 4.41224 17.7743Z" stroke="#7E7EFF" stroke-width="1.375"/>
<path d="M7.375 8.75001V6.45834C7.375 4.18017 9.22183 2.33334 11.5 2.33334C13.7782 2.33334 15.625 4.18017 15.625 6.45834V8.75001" stroke="#7E7EFF" stroke-width="1.375" stroke-linecap="round" stroke-linejoin="round"/>
<path d="M15.1667 14.6992V14.7092" stroke="#7E7EFF" stroke-width="1.83333" stroke-linecap="round" stroke-linejoin="round"/>
<path d="M11.5 14.6992V14.7092" stroke="#7E7EFF" stroke-width="1.83333" stroke-linecap="round" stroke-linejoin="round"/>
<path d="M7.83325 14.6992V14.7092" stroke="#7E7EFF" stroke-width="1.83333" stroke-linecap="round" stroke-linejoin="round"/>
</svg>
