<svg width="18" height="17" viewBox="0 0 18 17" fill="none" xmlns="http://www.w3.org/2000/svg">
<path d="M9.00001 0C4.30799 0 0.5 3.808 0.5 8.5C0.5 13.192 4.30799 17 9.00001 17C13.692 17 17.5 13.192 17.5 8.5C17.5 3.808 13.7005 0 9.00001 0ZM11.55 10.3955L9.08501 11.815C8.77901 11.9935 8.43901 12.0785 8.10751 12.0785C7.76752 12.0785 7.43602 11.9935 7.12999 11.815C6.51799 11.458 6.15249 10.829 6.15249 10.115V7.2675C6.15249 6.562 6.51799 5.9245 7.12999 5.5675C7.74202 5.2105 8.47301 5.2105 9.09351 5.5675L11.5585 6.987C12.1705 7.344 12.536 7.973 12.536 8.687C12.536 9.401 12.1705 10.0385 11.55 10.3955Z" fill="#7E7EFF"/>
</svg>
