<svg width="21" height="20" viewBox="0 0 21 20" fill="none" xmlns="http://www.w3.org/2000/svg">
<mask id="mask0_530_128" style="mask-type:luminance" maskUnits="userSpaceOnUse" x="0" y="0" width="21" height="20">
<path d="M20.5 0H0.5V20H20.5V0Z" fill="white"/>
</mask>
<g mask="url(#mask0_530_128)">
<path d="M18.8333 4.04143V13.9498C18.8333 14.7581 18.175 15.4998 17.3667 15.5998L17.1083 15.6331C15.7417 15.8164 13.8167 16.3831 12.2667 17.0331C11.725 17.2581 11.125 16.8498 11.125 16.2581V4.66643C11.125 4.35809 11.3 4.07476 11.575 3.92476C13.1 3.09976 15.4083 2.36643 16.975 2.23309H17.025C18.025 2.23309 18.8333 3.04143 18.8333 4.04143Z" fill="#7E7EFF"/>
<path d="M9.425 3.92476C7.89999 3.09976 5.59166 2.36643 4.02499 2.23309H3.96666C2.96666 2.23309 2.15833 3.04143 2.15833 4.04143V13.9498C2.15833 14.7581 2.81666 15.4998 3.62499 15.5998L3.88333 15.6331C5.24999 15.8164 7.17499 16.3831 8.72499 17.0331C9.26667 17.2581 9.86667 16.8498 9.86667 16.2581V4.66643C9.86667 4.34976 9.7 4.07476 9.425 3.92476ZM4.66666 6.44976H6.54166C6.88333 6.44976 7.16666 6.73309 7.16666 7.07476C7.16666 7.42476 6.88333 7.69976 6.54166 7.69976H4.66666C4.32499 7.69976 4.04166 7.42476 4.04166 7.07476C4.04166 6.73309 4.32499 6.44976 4.66666 6.44976ZM7.16666 10.1998H4.66666C4.32499 10.1998 4.04166 9.92477 4.04166 9.57477C4.04166 9.2331 4.32499 8.94977 4.66666 8.94977H7.16666C7.50833 8.94977 7.79166 9.2331 7.79166 9.57477C7.79166 9.92477 7.50833 10.1998 7.16666 10.1998Z" fill="#7E7EFF"/>
</g>
</svg>
