<svg width="21" height="21" viewBox="0 0 21 21" fill="none" xmlns="http://www.w3.org/2000/svg">
<path d="M17.0625 4.8125L16.5203 13.5845C16.3817 15.8256 16.3124 16.9462 15.7507 17.7519C15.4729 18.1502 15.1154 18.4864 14.7006 18.739C13.8618 19.25 12.7391 19.25 10.4936 19.25C8.24523 19.25 7.12101 19.25 6.28167 18.738C5.8667 18.485 5.509 18.1482 5.23135 17.7492C4.66977 16.9423 4.60202 15.8201 4.46653 13.5758L3.9375 4.8125" stroke="#7E7EFF" stroke-width="1.5" stroke-linecap="round"/>
<path d="M7.875 10.268H13.125" stroke="#7E7EFF" stroke-width="1.5" stroke-linecap="round"/>
<path d="M9.1875 13.6975H11.8125" stroke="#7E7EFF" stroke-width="1.5" stroke-linecap="round"/>
<path d="M2.625 4.8125H18.375M14.0486 4.8125L13.4513 3.58026C13.0545 2.76173 12.856 2.35246 12.5138 2.09721C12.438 2.04059 12.3575 1.99022 12.2735 1.94661C11.8945 1.75 11.4397 1.75 10.53 1.75C9.59752 1.75 9.13133 1.75 8.74605 1.95485C8.66067 2.00026 8.57919 2.05266 8.50246 2.11152C8.15627 2.37711 7.96288 2.80136 7.57612 3.64985L7.04614 4.8125" stroke="#7E7EFF" stroke-width="1.5" stroke-linecap="round"/>
</svg>
