<svg width="22" height="20" viewBox="0 0 22 20" fill="none" xmlns="http://www.w3.org/2000/svg">
<path d="M4.78223 2.18192C5.43007 1.68319 5.754 1.43383 6.12788 1.27323C6.29741 1.20041 6.47367 1.14158 6.65459 1.09741C7.0536 1 7.4767 1 8.32289 1H13.6771C14.5233 1 14.9464 1 15.3454 1.09741C15.5263 1.14158 15.7026 1.20041 15.8721 1.27323C16.246 1.43383 16.5699 1.68319 17.2178 2.18192C19.3644 3.83448 20.4378 4.66077 20.8057 5.73078C20.9694 6.20673 21.0305 6.70728 20.9858 7.20461C20.8852 8.3227 20.0379 9.346 18.3433 11.3925L14.3498 16.2153C12.8126 18.0718 12.044 19 11 19C9.956 19 9.1874 18.0718 7.65018 16.2153L3.65671 11.3925C1.96208 9.346 1.11476 8.3227 1.0142 7.20461C0.969472 6.70728 1.03064 6.20673 1.1943 5.73078C1.56224 4.66077 2.63557 3.83448 4.78223 2.18192Z" fill="#7E7EFF" stroke="#7E7EFF" stroke-width="1.5"/>
</svg>
