<svg width="20" height="21" viewBox="0 0 20 21" fill="none" xmlns="http://www.w3.org/2000/svg">
<g clip-path="url(#clip0_1_124)">
<path d="M20 10.6918C20 5.16896 15.5228 0.691772 10 0.691772C4.47719 0.691772 0 5.16896 0 10.6918C0 15.683 3.65687 19.8201 8.4375 20.5703V13.5824H5.89844V10.6918H8.4375V8.48865C8.4375 5.9824 9.93047 4.59802 12.2147 4.59802C13.3088 4.59802 14.4531 4.79334 14.4531 4.79334V7.25427H13.1922C11.9499 7.25427 11.5625 8.02513 11.5625 8.81599V10.6918H14.3359L13.8926 13.5824H11.5625V20.5703C16.3431 19.8201 20 15.6831 20 10.6918Z" fill="#1877F2"/>
<path d="M13.8926 13.5824L14.3359 10.6918H11.5625V8.81599C11.5625 8.02505 11.9499 7.25427 13.1922 7.25427H14.4531V4.79333C14.4531 4.79333 13.3088 4.59802 12.2146 4.59802C9.93047 4.59802 8.4375 5.9824 8.4375 8.48865V10.6918H5.89844V13.5824H8.4375V20.5703C8.95439 20.6513 9.4768 20.6919 10 20.6918C10.5232 20.6919 11.0456 20.6513 11.5625 20.5703V13.5824H13.8926Z" fill="white"/>
</g>
<defs>
<clipPath id="clip0_1_124">
<rect width="20" height="20" fill="white" transform="translate(0 0.691772)"/>
</clipPath>
</defs>
</svg>
