<svg width="21" height="21" viewBox="0 0 21 21" fill="none" xmlns="http://www.w3.org/2000/svg">
<g clip-path="url(#clip0_1_117)">
<path d="M7.30052 1.34961C5.30221 2.04284 3.57887 3.35862 2.38363 5.10368C1.18839 6.84873 0.584259 8.93109 0.659964 11.0449C0.735668 13.1587 1.48722 15.1925 2.80424 16.8475C4.12125 18.5026 5.9343 19.6917 7.97708 20.2402C9.63321 20.6676 11.3683 20.6863 13.0333 20.2949C14.5416 19.9561 15.9361 19.2314 17.0802 18.1918C18.271 17.0767 19.1353 15.6582 19.5802 14.0887C20.0638 12.3819 20.1499 10.587 19.8318 8.8418H10.5318V12.6996H15.9177C15.8101 13.3149 15.5794 13.9022 15.2395 14.4262C14.8996 14.9503 14.4575 15.4004 13.9396 15.7496C13.2819 16.1847 12.5405 16.4774 11.763 16.609C10.9832 16.754 10.1834 16.754 9.40365 16.609C8.61332 16.4456 7.86568 16.1194 7.20833 15.6512C6.15232 14.9037 5.35939 13.8417 4.94271 12.6168C4.51898 11.369 4.51898 10.0162 4.94271 8.76836C5.23931 7.8937 5.72964 7.09732 6.37708 6.43867C7.11801 5.67109 8.05604 5.12242 9.08827 4.85286C10.1205 4.58329 11.207 4.60325 12.2286 4.91055C13.0267 5.15554 13.7565 5.58358 14.3599 6.16055C14.9672 5.55638 15.5734 4.95065 16.1786 4.34336C16.4911 4.0168 16.8318 3.70586 17.1396 3.37149C16.2186 2.51442 15.1375 1.84751 13.9583 1.40899C11.811 0.629284 9.46142 0.60833 7.30052 1.34961Z" fill="#0F1011"/>
<path d="M7.30053 1.34958C9.46125 0.607792 11.8108 0.628195 13.9583 1.40739C15.1377 1.8489 16.2183 2.51901 17.138 3.37927C16.8255 3.71364 16.4958 4.02614 16.1771 4.35114C15.5708 4.95635 14.9651 5.55947 14.3599 6.16052C13.7565 5.58354 13.0267 5.1555 12.2286 4.91052C11.2074 4.60214 10.1209 4.58103 9.08837 4.84949C8.05587 5.11795 7.11726 5.66561 6.37552 6.43239C5.72808 7.09104 5.23775 7.88742 4.94115 8.76208L1.70209 6.25427C2.86148 3.95514 4.86888 2.19649 7.30053 1.34958Z" fill="#E33629"/>
<path d="M0.842671 8.73865C1.01677 7.87583 1.3058 7.04025 1.70205 6.25427L4.94111 8.76833C4.51738 10.0162 4.51738 11.3689 4.94111 12.6168C3.86194 13.4501 2.78225 14.2876 1.70205 15.1293C0.710094 13.1548 0.407566 10.9051 0.842671 8.73865Z" fill="#F8BD00"/>
<path d="M10.5318 8.84021H19.8318C20.1499 10.5854 20.0638 12.3803 19.5802 14.0871C19.1353 15.6566 18.2709 17.0751 17.0802 18.1902C16.0349 17.3746 14.9849 16.5652 13.9396 15.7496C14.4578 15.4 14.9002 14.9494 15.2401 14.4248C15.58 13.9002 15.8105 13.3123 15.9177 12.6965H10.5318C10.5302 11.4121 10.5318 10.1261 10.5318 8.84021Z" fill="#587DBD"/>
<path d="M1.7005 15.1293C2.78071 14.2959 3.8604 13.4584 4.93956 12.6168C5.35707 13.8421 6.15113 14.9041 7.20831 15.6511C7.8677 16.1172 8.61695 16.4407 9.40831 16.6011C10.1881 16.7461 10.9879 16.7461 11.7677 16.6011C12.5452 16.4695 13.2866 16.1768 13.9443 15.7418C14.9896 16.5574 16.0396 17.3668 17.0849 18.1824C15.941 19.2226 14.5465 19.9478 13.038 20.2871C11.373 20.6785 9.63788 20.6597 7.98175 20.2324C6.67191 19.8827 5.44843 19.2661 4.388 18.4214C3.2656 17.5303 2.34887 16.4073 1.7005 15.1293Z" fill="#319F43"/>
</g>
<defs>
<clipPath id="clip0_1_117">
<rect width="20" height="20" fill="white" transform="translate(0.333313 0.691772)"/>
</clipPath>
</defs>
</svg>
