<svg width="23" height="23" viewBox="0 0 23 23" fill="none" xmlns="http://www.w3.org/2000/svg">
<path d="M16.0833 11.3208C16.0833 11.0039 16.0833 10.8455 16.1309 10.7044C16.2695 10.2941 16.6349 10.1349 17.0009 9.96818C17.4124 9.78072 17.6181 9.68704 17.822 9.67054C18.0534 9.65182 18.2853 9.7017 18.4831 9.81271C18.7453 9.95984 18.9282 10.2395 19.1155 10.4669C19.9803 11.5173 20.4126 12.0425 20.5708 12.6217C20.6985 13.089 20.6985 13.5777 20.5708 14.0451C20.3401 14.8898 19.611 15.5979 19.0714 16.2533C18.7954 16.5885 18.6573 16.7562 18.4831 16.854C18.2853 16.965 18.0534 17.0149 17.822 16.9962C17.6181 16.9797 17.4124 16.886 17.0009 16.6985C16.6349 16.5318 16.2695 16.3727 16.1309 15.9624C16.0833 15.8212 16.0833 15.6628 16.0833 15.3459V11.3208Z" stroke="#7E7EFF" stroke-width="1.375"/>
<path d="M6.91659 11.3209C6.91659 10.9219 6.90538 10.5633 6.58284 10.2828C6.46552 10.1808 6.30998 10.11 5.99892 9.96824C5.58743 9.78088 5.38168 9.68719 5.17782 9.67069C4.56617 9.62119 4.2371 10.0386 3.88437 10.4671C3.01961 11.5174 2.58722 12.0426 2.42901 12.6217C2.30133 13.0891 2.30133 13.5779 2.42901 14.0452C2.65977 14.8899 3.38881 15.598 3.92844 16.2535C4.2686 16.6666 4.59354 17.0435 5.17782 16.9963C5.38168 16.9798 5.58743 16.8861 5.99892 16.6987C6.30998 16.557 6.46552 16.4861 6.58284 16.3841C6.90538 16.1036 6.91659 15.7451 6.91659 15.3461V11.3209Z" stroke="#7E7EFF" stroke-width="1.375"/>
<path d="M18.8334 10.125V8.74998C18.8334 5.20616 15.5502 2.33331 11.5001 2.33331C7.44999 2.33331 4.16675 5.20616 4.16675 8.74998V10.125" stroke="#7E7EFF" stroke-width="1.375" stroke-linecap="round" stroke-linejoin="round"/>
<path d="M18.8333 16.5417C18.8333 20.6667 15.1667 20.6667 11.5 20.6667" stroke="#7E7EFF" stroke-width="1.375" stroke-linecap="round" stroke-linejoin="round"/>
</svg>
