<svg width="19" height="18" viewBox="0 0 19 18" fill="none" xmlns="http://www.w3.org/2000/svg">
<path d="M14.1666 17.8007H4.83321C3.31654 17.8007 1.93321 16.634 1.68321 15.134L0.57487 8.50069C0.39987 7.46736 0.899878 6.14239 1.72488 5.48406L7.49989 0.859015C8.61659 -0.040985 10.3748 -0.0326433 11.4998 0.867357L17.2749 5.48406C18.0916 6.14239 18.5916 7.46736 18.4249 8.50069L17.3166 15.134C17.0666 16.609 15.6583 17.8007 14.1666 17.8007ZM9.49159 1.45071C9.04992 1.45071 8.60817 1.58402 8.28317 1.84235L2.50821 6.46739C2.03321 6.85072 1.70822 7.70069 1.80822 8.30069L2.91655 14.934C3.06655 15.809 3.94154 16.5507 4.83321 16.5507H14.1666C15.0583 16.5507 15.9332 15.809 16.0832 14.9257L17.1915 8.29236C17.2915 7.69236 16.9583 6.83405 16.4916 6.45905L10.7166 1.84235C10.3833 1.58402 9.94159 1.45071 9.49159 1.45071Z" fill="white"/>
</svg>
