<svg width="23" height="23" viewBox="0 0 23 23" fill="none" xmlns="http://www.w3.org/2000/svg">
<path d="M11.4999 20.6667C6.43731 20.6667 2.33325 16.5626 2.33325 11.5C2.33325 8.94017 3.38251 6.62541 5.07442 4.96235M11.4999 20.6667C10.6172 20.0125 10.7581 19.2509 11.2009 18.4893C11.8818 17.3184 11.8818 17.3184 11.8818 15.7574C11.8818 14.1963 12.8095 13.4643 16.0833 14.119C17.5542 14.4133 18.6262 12.3808 20.5358 13.0519M11.4999 20.6667C16.0336 20.6667 19.7985 17.3755 20.5358 13.0519M5.07442 4.96235C5.85294 5.04451 6.28882 5.46158 7.0128 6.22656C8.38728 7.67889 9.76174 7.80007 10.6781 7.31596C12.0526 6.58981 10.8976 5.4136 12.5107 4.77439C13.4997 4.38255 13.6882 3.35632 13.2201 2.49447M5.07442 4.96235C6.72862 3.33635 8.99713 2.33333 11.4999 2.33333C12.0879 2.33333 12.6629 2.38869 13.2201 2.49447M20.5358 13.0519C20.6218 12.5475 20.6666 12.029 20.6666 11.5C20.6666 7.02535 17.4605 3.29954 13.2201 2.49447" stroke="#7E7EFF" stroke-width="1.5" stroke-linejoin="round"/>
</svg>
