<svg width="20" height="21" viewBox="0 0 20 21" fill="none" xmlns="http://www.w3.org/2000/svg">
<path d="M3.55649 16.3957C3.74389 17.7876 4.89675 18.878 6.2997 18.9425C7.4802 18.9968 8.6794 19.0251 9.99998 19.0251C11.3206 19.0251 12.5197 18.9968 13.7002 18.9425C15.1032 18.878 16.2561 17.7876 16.4435 16.3957C16.5658 15.4874 16.6666 14.5564 16.6666 13.6084C16.6666 12.6604 16.5658 11.7295 16.4435 10.8212C16.2561 9.42927 15.1032 8.33885 13.7002 8.27435C12.5197 8.22008 11.3206 8.19177 9.99998 8.19177C8.6794 8.19177 7.4802 8.22008 6.2997 8.27435C4.89675 8.33885 3.74389 9.42927 3.55649 10.8212C3.43419 11.7295 3.33331 12.6604 3.33331 13.6084C3.33331 14.5564 3.43419 15.4874 3.55649 16.3957Z" stroke="#0F1011" stroke-width="1.2"/>
<path d="M6.25 8.19176V6.10843C6.25 4.03736 7.92893 2.35843 10 2.35843C12.0711 2.35843 13.75 4.03736 13.75 6.10843V8.19176" stroke="#0F1011" stroke-width="1.2" stroke-linecap="round" stroke-linejoin="round"/>
<path d="M13.3333 13.6001V13.6101" stroke="#0F1011" stroke-width="1.4" stroke-linecap="round" stroke-linejoin="round"/>
<path d="M10 13.6001V13.6101" stroke="#0F1011" stroke-width="1.4" stroke-linecap="round" stroke-linejoin="round"/>
<path d="M6.66669 13.6001V13.6101" stroke="#0F1011" stroke-width="1.4" stroke-linecap="round" stroke-linejoin="round"/>
</svg>
