<svg width="23" height="23" viewBox="0 0 23 23" fill="none" xmlns="http://www.w3.org/2000/svg">
<path d="M14.25 16.6562C14.1825 18.3538 12.7678 19.7953 10.8726 19.7489C10.4317 19.7381 9.88676 19.5844 8.79686 19.277C6.17381 18.5371 3.89675 17.2936 3.35043 14.508C3.25 13.9961 3.25 13.4199 3.25 12.2675V10.7325C3.25 9.58014 3.25 9.00396 3.35043 8.49192C3.89675 5.70634 6.17381 4.46289 8.79686 3.72303C9.88676 3.41558 10.4317 3.26187 10.8726 3.25109C12.7678 3.20472 14.1825 4.64615 14.25 6.34376" stroke="#FF2027" stroke-width="1.375" stroke-linecap="round"/>
<path d="M19.7501 11.5H9.66675M19.7501 11.5C19.7501 10.8581 17.922 9.65888 17.4584 9.20831M19.7501 11.5C19.7501 12.1418 17.922 13.3411 17.4584 13.7916" stroke="#FF2027" stroke-width="1.375" stroke-linecap="round" stroke-linejoin="round"/>
</svg>
