<svg width="25" height="21" viewBox="0 0 25 21" fill="none" xmlns="http://www.w3.org/2000/svg">
<g clip-path="url(#clip0_229_930)">
<path d="M4.54473 20.4006V19.0769C4.54473 18.5693 4.24453 18.2385 3.72998 18.2385C3.47275 18.2385 3.19404 18.3267 3.00107 18.6136C2.85107 18.3709 2.63672 18.2385 2.31514 18.2385C2.10068 18.2385 1.88643 18.3046 1.71484 18.5473V18.2826H1.26465V20.4006H1.71484V19.2313C1.71484 18.8563 1.90781 18.6797 2.20801 18.6797C2.50801 18.6797 2.6582 18.8783 2.6582 19.2313V20.4006H3.1084V19.2313C3.1084 18.8563 3.32266 18.6797 3.60137 18.6797C3.90156 18.6797 4.05156 18.8783 4.05156 19.2313V20.4006H4.54473ZM11.2118 18.2826H10.483V17.6428H10.0328V18.2826H9.62549V18.7017H10.0327V19.6726C10.0327 20.158 10.2257 20.4447 10.7402 20.4447C10.9332 20.4447 11.1475 20.3786 11.2977 20.2904L11.1689 19.8932C11.0403 19.9814 10.8903 20.0035 10.7831 20.0035C10.5687 20.0035 10.483 19.8712 10.483 19.6505V18.7017H11.2118V18.2826ZM15.0278 18.2384C14.7706 18.2384 14.5991 18.3709 14.4919 18.5473V18.2826H14.0417V20.4006H14.4919V19.2092C14.4919 18.8563 14.6419 18.6577 14.9206 18.6577C15.0063 18.6577 15.1136 18.6798 15.1993 18.7018L15.3279 18.2606C15.2422 18.2385 15.1136 18.2385 15.0278 18.2385M9.26103 18.4592C9.04658 18.3047 8.74648 18.2386 8.4249 18.2386C7.91045 18.2386 7.56748 18.5033 7.56748 18.9225C7.56748 19.2756 7.82471 19.4741 8.2749 19.5403L8.48926 19.5624C8.7251 19.6064 8.85371 19.6727 8.85371 19.783C8.85371 19.9374 8.68223 20.0477 8.38203 20.0477C8.08184 20.0477 7.84609 19.9374 7.696 19.8271L7.48164 20.1801C7.71748 20.3566 8.03906 20.4448 8.36055 20.4448C8.96084 20.4448 9.30391 20.1581 9.30391 19.7609C9.30391 19.3858 9.0252 19.1872 8.59639 19.1211L8.38203 19.099C8.18906 19.0769 8.03906 19.0329 8.03906 18.9005C8.03906 18.746 8.18906 18.6578 8.4249 18.6578C8.68223 18.6578 8.93945 18.768 9.06807 18.8343L9.26103 18.4592ZM21.2234 18.2386C20.9661 18.2386 20.7946 18.371 20.6874 18.5474V18.2827H20.2372V20.4007H20.6874V19.2093C20.6874 18.8564 20.8375 18.6578 21.1161 18.6578C21.202 18.6578 21.3092 18.6799 21.3949 18.7019L21.5235 18.2607C21.4378 18.2386 21.3092 18.2386 21.2234 18.2386ZM15.478 19.3417C15.478 19.9815 15.9067 20.4448 16.5714 20.4448C16.8715 20.4448 17.0858 20.3787 17.3002 20.2022L17.0858 19.8271C16.9144 19.9595 16.7429 20.0256 16.5499 20.0256C16.1855 20.0256 15.9282 19.7609 15.9282 19.3417C15.9282 18.9446 16.1855 18.6798 16.5499 18.6578C16.7429 18.6578 16.9144 18.7239 17.0858 18.8564L17.3002 18.4813C17.0858 18.3047 16.8715 18.2386 16.5714 18.2386C15.9067 18.2386 15.478 18.7019 15.478 19.3417ZM19.637 19.3417V18.2827H19.1868V18.5474C19.0367 18.3489 18.8224 18.2386 18.5437 18.2386C17.9648 18.2386 17.5146 18.7019 17.5146 19.3417C17.5146 19.9815 17.9648 20.4448 18.5437 20.4448C18.8438 20.4448 19.0582 20.3346 19.1868 20.136V20.4007H19.637V19.3417ZM17.9862 19.3417C17.9862 18.9666 18.2221 18.6578 18.6079 18.6578C18.9724 18.6578 19.2297 18.9446 19.2297 19.3417C19.2297 19.7168 18.9724 20.0256 18.6079 20.0256C18.2221 20.0035 17.9862 19.7168 17.9862 19.3417ZM12.6054 18.2386C12.0051 18.2386 11.5763 18.6798 11.5763 19.3417C11.5763 20.0036 12.005 20.4448 12.6268 20.4448C12.9269 20.4448 13.2271 20.3566 13.4629 20.1581L13.2484 19.8271C13.077 19.9595 12.8626 20.0477 12.6482 20.0477C12.3695 20.0477 12.0908 19.9154 12.0265 19.5402H13.5486V19.3638C13.5701 18.6798 13.1843 18.2386 12.6054 18.2386ZM12.6053 18.6357C12.8839 18.6357 13.077 18.8123 13.1197 19.1432H12.0479C12.0907 18.8564 12.2837 18.6357 12.6053 18.6357ZM23.7744 19.3417V17.4443H23.3242V18.5474C23.1741 18.3489 22.9598 18.2386 22.6811 18.2386C22.1022 18.2386 21.6521 18.7019 21.6521 19.3417C21.6521 19.9815 22.1022 20.4448 22.6811 20.4448C22.9813 20.4448 23.1956 20.3346 23.3242 20.136V20.4007H23.7744V19.3417ZM22.1237 19.3417C22.1237 18.9666 22.3595 18.6578 22.7454 18.6578C23.1099 18.6578 23.3671 18.9446 23.3671 19.3417C23.3671 19.7168 23.1099 20.0256 22.7454 20.0256C22.3595 20.0035 22.1237 19.7168 22.1237 19.3417ZM7.07422 19.3417V18.2827H6.62402V18.5474C6.47393 18.3489 6.25957 18.2386 5.98086 18.2386C5.40205 18.2386 4.95186 18.7019 4.95186 19.3417C4.95186 19.9815 5.40205 20.4448 5.98086 20.4448C6.28105 20.4448 6.49541 20.3346 6.62402 20.136V20.4007H7.07422V19.3417ZM5.40205 19.3417C5.40205 18.9666 5.63789 18.6578 6.02373 18.6578C6.38818 18.6578 6.64551 18.9446 6.64551 19.3417C6.64551 19.7168 6.38818 20.0256 6.02373 20.0256C5.63789 20.0035 5.40205 19.7168 5.40205 19.3417Z" fill="black"/>
<path d="M9.11133 2.19879H15.8643V14.6863H9.11133V2.19879Z" fill="#FF5F00"/>
<path d="M9.53994 8.44261C9.53994 5.90543 10.6976 3.65497 12.4769 2.19879C11.1692 1.1398 9.51855 0.5 7.71777 0.5C3.45146 0.5 0 4.05206 0 8.44261C0 12.8332 3.45146 16.3852 7.71768 16.3852C9.51846 16.3852 11.1691 15.7454 12.4769 14.6863C10.6976 13.2523 9.53994 10.9798 9.53994 8.44261Z" fill="#EB001B"/>
<path d="M24.9754 8.44261C24.9754 12.8331 21.5239 16.3852 17.2577 16.3852C15.4569 16.3852 13.8062 15.7454 12.4985 14.6863C14.2993 13.2303 15.4355 10.9798 15.4355 8.44261C15.4355 5.90543 14.2778 3.65497 12.4985 2.19879C13.8062 1.1398 15.4569 0.5 17.2577 0.5C21.5239 0.5 24.9754 4.07417 24.9754 8.44261Z" fill="#F79E1B"/>
</g>
<defs>
<clipPath id="clip0_229_930">
<rect width="25" height="20" fill="white" transform="translate(0 0.5)"/>
</clipPath>
</defs>
</svg>
