<svg width="20" height="21" viewBox="0 0 20 21" fill="none" xmlns="http://www.w3.org/2000/svg">
<path d="M5.83334 7.77512L8.28503 9.22462C9.71434 10.0697 10.2857 10.0697 11.715 9.22462L14.1667 7.77512" stroke="#0F1011" stroke-width="1.2" stroke-linecap="round" stroke-linejoin="round"/>
<path d="M1.67979 11.9214C1.73428 14.476 1.76151 15.7533 2.70412 16.6995C3.64673 17.6458 4.9586 17.6787 7.58235 17.7446C9.19941 17.7853 10.8006 17.7853 12.4177 17.7446C15.0414 17.6787 16.3532 17.6458 17.2958 16.6995C18.2385 15.7533 18.2657 14.476 18.3202 11.9214C18.3377 11.1 18.3377 10.2834 18.3202 9.46209C18.2657 6.90745 18.2385 5.63014 17.2958 4.68395C16.3532 3.73776 15.0414 3.7048 12.4177 3.63887C10.8006 3.59824 9.19941 3.59824 7.58234 3.63887C4.9586 3.70478 3.64673 3.73774 2.70412 4.68394C1.76151 5.63013 1.73427 6.90744 1.67979 9.46201C1.66228 10.2834 1.66228 11.1 1.67979 11.9214Z" stroke="#0F1011" stroke-width="1.2" stroke-linejoin="round"/>
</svg>
