<svg width="20" height="21" viewBox="0 0 20 21" fill="none" xmlns="http://www.w3.org/2000/svg">
<path d="M10.8334 6.52511C10.8334 8.36606 9.34094 9.85844 7.50002 9.85844C5.65907 9.85844 4.16669 8.36606 4.16669 6.52511C4.16669 4.68416 5.65907 3.19177 7.50002 3.19177C9.34094 3.19177 10.8334 4.68416 10.8334 6.52511Z" stroke="#0F1011" stroke-width="1.2"/>
<path d="M12.5 9.85844C14.3409 9.85844 15.8333 8.36606 15.8333 6.52511C15.8333 4.68416 14.3409 3.19177 12.5 3.19177" stroke="#0F1011" stroke-width="1.2" stroke-linecap="round" stroke-linejoin="round"/>
<path d="M9.16669 12.3584H5.83335C3.53217 12.3584 1.66669 14.2239 1.66669 16.5251C1.66669 17.4456 2.41288 18.1918 3.33335 18.1918H11.6667C12.5872 18.1918 13.3334 17.4456 13.3334 16.5251C13.3334 14.2239 11.4679 12.3584 9.16669 12.3584Z" stroke="#0F1011" stroke-width="1.2" stroke-linejoin="round"/>
<path d="M14.1667 12.3584C16.4679 12.3584 18.3334 14.2239 18.3334 16.5251C18.3334 17.4456 17.5872 18.1918 16.6667 18.1918H15.4167" stroke="#0F1011" stroke-width="1.2" stroke-linecap="round" stroke-linejoin="round"/>
</svg>
