<svg width="16" height="17" viewBox="0 0 16 17" fill="none" xmlns="http://www.w3.org/2000/svg">
<path d="M10.9999 0.77151C10.6762 0.447826 10.1157 0.668878 10.1157 1.11888V3.87414C10.1157 5.02677 11.0947 5.98204 12.2868 5.98204C13.0368 5.98993 14.0789 5.98993 14.971 5.98993C15.421 5.98993 15.6578 5.46098 15.342 5.14519C14.2052 4.00046 12.1684 1.93993 10.9999 0.77151Z" fill="#7E7EFF"/>
<path d="M14.7105 7.07101H12.4289C10.5579 7.07101 9.03421 5.54733 9.03421 3.67628V1.3947C9.03421 0.960488 8.67895 0.605225 8.24474 0.605225H4.89737C2.46579 0.605225 0.5 2.18417 0.5 5.00259V11.9973C0.5 14.8158 2.46579 16.3947 4.89737 16.3947H11.1026C13.5342 16.3947 15.5 14.8158 15.5 11.9973V7.86049C15.5 7.42628 15.1447 7.07101 14.7105 7.07101ZM7.60526 13.0394H4.44737C4.12368 13.0394 3.85526 12.771 3.85526 12.4473C3.85526 12.1236 4.12368 11.8552 4.44737 11.8552H7.60526C7.92895 11.8552 8.19737 12.1236 8.19737 12.4473C8.19737 12.771 7.92895 13.0394 7.60526 13.0394ZM9.18421 9.88154H4.44737C4.12368 9.88154 3.85526 9.61312 3.85526 9.28944C3.85526 8.96575 4.12368 8.69733 4.44737 8.69733H9.18421C9.5079 8.69733 9.77632 8.96575 9.77632 9.28944C9.77632 9.61312 9.5079 9.88154 9.18421 9.88154Z" fill="#7E7EFF"/>
</svg>
