<svg width="20" height="20" viewBox="0 0 20 20" fill="none" xmlns="http://www.w3.org/2000/svg">
<g clip-path="url(#clip0_530_32)">
<mask id="mask0_530_32" style="mask-type:luminance" maskUnits="userSpaceOnUse" x="0" y="0" width="20" height="20">
<path d="M20 0H0V20H20V0Z" fill="white"/>
</mask>
<g mask="url(#mask0_530_32)">
<path d="M10.1329 9.68335C10.1079 9.68335 10.0913 9.68335 10.0663 9.68335C10.0246 9.67502 9.96625 9.67502 9.91625 9.68335C7.49956 9.60835 5.67456 7.70835 5.67456 5.36669C5.67456 2.98335 7.61623 1.04169 9.99959 1.04169C12.3829 1.04169 14.3246 2.98335 14.3246 5.36669C14.3163 7.70835 12.4829 9.60835 10.1579 9.68335C10.1496 9.68335 10.1413 9.68335 10.1329 9.68335ZM9.99959 2.29169C8.30789 2.29169 6.92456 3.67502 6.92456 5.36669C6.92456 7.03335 8.22456 8.37502 9.88292 8.43335C9.92459 8.42502 10.0413 8.42502 10.1496 8.43335C11.7829 8.35835 13.0663 7.01669 13.0746 5.36669C13.0746 3.67502 11.6913 2.29169 9.99959 2.29169Z" fill="white"/>
<path d="M10.1413 18.7917C8.508 18.7917 6.86634 18.375 5.62467 17.5417C4.46634 16.775 3.83301 15.725 3.83301 14.5834C3.83301 13.4417 4.46634 12.3834 5.62467 11.6084C8.12467 9.95004 12.1747 9.95004 14.658 11.6084C15.808 12.375 16.4497 13.425 16.4497 14.5667C16.4497 15.7084 15.8163 16.7667 14.658 17.5417C13.408 18.375 11.7747 18.7917 10.1413 18.7917ZM6.31634 12.6584C5.51634 13.1917 5.08301 13.875 5.08301 14.5917C5.08301 15.3 5.52467 15.9834 6.31634 16.5084C8.39133 17.9 11.8913 17.9 13.9663 16.5084C14.7663 15.975 15.1997 15.2917 15.1997 14.575C15.1997 13.8667 14.758 13.1834 13.9663 12.6584C11.8913 11.275 8.39133 11.275 6.31634 12.6584Z" fill="white"/>
</g>
</g>
<defs>
<clipPath id="clip0_530_32">
<rect width="20" height="20" fill="white"/>
</clipPath>
</defs>
</svg>
