<svg width="47" height="49" viewBox="0 0 47 49" fill="none" xmlns="http://www.w3.org/2000/svg">
<path d="M41.4453 32.693L43.431 30.7072L45.4168 32.693L43.431 34.6787L41.4453 32.693Z" fill="#6D6DFF"/>
<path d="M16.6255 5.88163L18.6112 3.89589L20.597 5.88163L18.6112 7.86737L16.6255 5.88163Z" fill="#7E7EFF"/>
<path d="M41.3828 0.674072H44.3618V3.48275H41.3828V0.674072Z" fill="#7E7EFF"/>
<path d="M34.3608 3.48275H37.3398V6.29142H34.3608V3.48275Z" fill="#7E7EFF"/>
<path d="M44.021 11.9088H47V14.7175H44.021V11.9088Z" fill="#6D6DFF"/>
<path d="M20.3409 17.3502L14.9569 14.1395L13.1436 18.2843L17.2592 23.9272L21.5928 26.7335H24.2185L24.5719 23.7544L20.3409 17.3502Z" fill="#7E7EFF"/>
<path d="M21.5933 26.7336L25.0927 31.6986L30.0424 35.1827L34.1873 33.3693L30.3305 27.5046L24.5723 23.7544L21.5933 26.7336Z" fill="#6D6DFF"/>
<path d="M21.5927 26.7336L13.1434 18.2843L11.9346 21.0474L16.226 26.9075L19.6067 28.7196L21.5927 28.7195V26.7336Z" fill="#CACAFF"/>
<path d="M19.6069 28.7196L22.3773 33.4622L27.279 36.3916L30.0421 35.1827L21.5929 26.7336L19.6069 28.7196Z" fill="white"/>
<path d="M14.6418 9.85217L12.6558 11.8382L24.572 23.7544L26.0953 23.9272L26.5581 21.7685L14.6418 9.85217Z" fill="#6D6DFF"/>
<path d="M24.5669 23.7556L26.5526 21.7699L38.467 33.6843L36.4812 35.67L24.5669 23.7556Z" fill="#CACAFF"/>
<path d="M38.9706 8.36264C37.8333 9.49996 37.0731 9.76379 36.1104 10.0977C35.0173 10.477 33.7784 10.9068 32.1849 12.5003C30.5915 14.0937 30.1616 15.3327 29.7825 16.4258C29.4485 17.3883 29.1847 18.1485 28.0474 19.286L28.5438 19.7824L34.236 14.2997L39.4671 8.85921L38.9706 8.36264Z" fill="#CACAFF"/>
<path d="M32.436 17.3463C32.77 16.3839 33.0337 15.6236 34.171 14.4862C35.3084 13.3489 36.0686 13.0852 37.0311 12.7512C38.1243 12.3719 39.3633 11.9421 40.9567 10.3487L39.4673 8.85922L28.5439 19.7824L30.0334 21.2718C31.6269 19.6784 32.0568 18.4394 32.436 17.3463Z" fill="#6D6DFF"/>
<path d="M34.0055 21.2719L32.0195 23.2579L34.0055 25.2439L35.9916 23.2579C37.6342 21.6152 40.3072 21.6152 41.9498 23.2579L43.9358 21.2718C41.1981 18.5342 36.7434 18.5342 34.0055 21.2719Z" fill="#7E7EFF"/>
<path d="M27.0546 14.3208C29.7924 11.5831 29.7924 7.12832 27.0546 4.39061L25.0685 6.37662C26.7112 8.01932 26.7112 10.6921 25.0685 12.3348L23.0825 14.3208L25.0685 16.3068L27.0546 14.3208Z" fill="#7E7EFF"/>
<path d="M19.607 28.7196L11.9349 21.0474L10.1216 25.1922L13.1437 30.0595L16.6279 31.6986L19.163 31.3702L19.607 28.7196Z" fill="#7E7EFF"/>
<path d="M16.6279 31.6986L18.8881 35.5562L23.1342 38.2049L27.2791 36.3916L19.607 28.7196L16.6279 31.6986Z" fill="#6D6DFF"/>
<path d="M16.6278 31.6986L10.1215 25.1922L8.9126 27.9554L11.3767 32.3095L14.6418 33.6846L16.2263 33.4622L16.6278 31.6986Z" fill="#CACAFF"/>
<path d="M14.6421 33.6846L16.0171 37.877L20.3712 39.4138L23.1344 38.2049L16.6281 31.6986L14.6421 33.6846Z" fill="white"/>
<path d="M14.6416 33.6846L8.9124 27.9554L7.09912 32.1002L8.9124 35.6706L11.6626 36.6636L13.1435 35.9109L14.6416 33.6846Z" fill="#7E7EFF"/>
<path d="M11.6626 36.6636L13.1435 39.1877L16.2261 41.2272L20.3708 39.4138L14.6417 33.6846L11.6626 36.6636Z" fill="#6D6DFF"/>
<path d="M11.6625 36.6636L7.09909 32.1002L5.89014 34.8634L7.49108 37.4559L9.67652 38.6496H11.1892L11.6625 36.6636Z" fill="#CACAFF"/>
<path d="M9.67676 38.6496L10.5341 41.2272L13.4631 42.436L16.2263 41.2272L11.6628 36.6636L9.67676 38.6496Z" fill="white"/>
<path d="M5.89029 34.8634L0.000488281 48.3259L7.44442 42.2304L9.67666 38.6496L5.89029 34.8634Z" fill="#7E7EFF"/>
<path d="M0.000488281 48.3259L13.463 42.436L9.67666 38.6496L0.000488281 48.3259Z" fill="#6D6DFF"/>
</svg>
