<svg width="23" height="23" viewBox="0 0 23 23" fill="none" xmlns="http://www.w3.org/2000/svg">
<path d="M10.4676 20.2196L8.60641 19.1149C8.13406 18.8346 7.89789 18.6944 7.63577 18.6863C7.35252 18.6775 7.11217 18.812 6.60176 19.1149C6.03011 19.4543 4.89344 20.3889 4.15818 19.9432C3.70825 19.6704 3.70825 18.9776 3.70825 17.5919V7.83334C3.70825 5.24062 3.70825 3.94426 4.51371 3.1388C5.31917 2.33334 6.61552 2.33334 9.20825 2.33334H13.7916C16.3843 2.33334 17.6806 2.33334 18.4861 3.1388C19.2916 3.94426 19.2916 5.24062 19.2916 7.83334V17.5919C19.2916 18.9776 19.2916 19.6704 18.8417 19.9432C18.1064 20.3889 16.9698 19.4543 16.398 19.1149C15.9258 18.8346 15.6895 18.6944 15.4275 18.6863C15.1442 18.6775 14.9039 18.812 14.3935 19.1149L12.5323 20.2196C12.0303 20.5176 11.7792 20.6666 11.4999 20.6666C11.2206 20.6666 10.9695 20.5176 10.4676 20.2196Z" stroke="#7E7EFF" stroke-width="1.375" stroke-linecap="round" stroke-linejoin="round"/>
<path d="M14.25 7.83334L8.75 13.3333" stroke="#7E7EFF" stroke-width="1.375" stroke-linecap="round" stroke-linejoin="round"/>
<path d="M14.25 13.3333H14.2418M8.75822 7.83334H8.75" stroke="#7E7EFF" stroke-width="1.83333" stroke-linecap="round" stroke-linejoin="round"/>
</svg>
